<svg width="43" height="43" viewBox="0 0 43 43" fill="none" xmlns="http://www.w3.org/2000/svg">
<g clip-path="url(#clip0_1_14)">
<g filter="url(#filter0_i_1_14)">
<rect x="24.09" y="-8.38" width="42" height="42" rx="21" transform="rotate(50 24.09 -8.38)" fill="white"/>
</g>
<g clip-path="url(#clip1_1_14)">
<path d="M4.27875 16.1539C4.3877 16.2628 4.51708 16.3445 4.66688 16.399C4.81669 16.4535 4.95969 16.4807 5.09587 16.4807L9.7126 16.399L9.75346 20.9749C9.7807 21.3017 9.90326 21.5741 10.1212 21.792C10.3391 22.0099 10.6114 22.1188 10.9383 22.1188L18.1289 21.9963C18.4558 21.9963 18.7282 21.8805 18.9461 21.649C19.164 21.4175 19.2729 21.1519 19.2729 20.8523L19.1912 16.2356L23.7671 16.1947C24.0939 16.1675 24.3663 16.0449 24.5842 15.827C24.8021 15.6091 24.911 15.3367 24.911 15.0099L24.7885 7.81923C24.7885 7.68304 24.7612 7.54004 24.7068 7.39024C24.6523 7.24043 24.5706 7.11106 24.4616 7.00211C24.3527 6.89316 24.2233 6.81825 24.0735 6.7774C23.9237 6.73654 23.7807 6.7025 23.6445 6.67526L19.0278 6.75697L18.9869 2.18109C18.9597 1.85425 18.8303 1.56825 18.5988 1.32312C18.3673 1.07798 18.1017 0.982651 17.8021 1.03713L10.6114 1.15969C10.448 1.15969 10.2982 1.18693 10.162 1.24141C10.0258 1.29588 9.90326 1.37759 9.79432 1.48654C9.68537 1.59549 9.60365 1.72487 9.54918 1.87467C9.4947 2.02448 9.46747 2.16748 9.46747 2.30366L9.54918 6.92039L4.9733 6.96125C4.64646 6.98849 4.37408 7.11106 4.15618 7.32895C3.93828 7.54685 3.82934 7.81923 3.82934 8.14608L3.9519 15.3367C3.9519 15.5002 3.97914 15.65 4.03362 15.7862C4.08809 15.9223 4.1698 16.0449 4.27875 16.1539ZM10.734 9.20833C10.8974 9.20833 11.0472 9.17429 11.1834 9.10619C11.3196 9.0381 11.4422 8.94958 11.5511 8.84063C11.6601 8.73168 11.7418 8.60911 11.7963 8.47292C11.8507 8.33674 11.878 8.18693 11.878 8.02351L11.7963 3.44763L16.699 3.36592L16.7398 7.9418C16.7398 8.10522 16.7739 8.25502 16.842 8.39121C16.9101 8.5274 16.9986 8.64997 17.1075 8.75892C17.2165 8.86787 17.3459 8.95639 17.4957 9.02448C17.6455 9.09257 17.7885 9.113 17.9247 9.08576L22.5005 9.04491L22.5823 13.9068L18.0064 13.9885C17.6795 13.9885 17.4072 14.0974 17.1893 14.3153C16.9714 14.5332 16.8624 14.8056 16.8624 15.1325L16.9441 19.7492L12.0414 19.79L12.0005 15.2142C12.0005 14.9146 11.8848 14.649 11.6533 14.4175C11.4217 14.186 11.1426 14.0702 10.8157 14.0702L6.23984 14.1519L6.15813 9.29004L10.734 9.20833ZM42.3974 16.6441C41.771 14.8465 41.0083 13.1441 40.1095 11.5371C39.2107 9.93012 38.1756 8.41845 37.0044 7.00211C36.8955 6.89316 36.7661 6.79783 36.6163 6.71611C36.4665 6.6344 36.2963 6.59355 36.1056 6.59355C35.9422 6.59355 35.7787 6.6344 35.6153 6.71611C35.4519 6.79783 35.3157 6.89316 35.2068 7.00211C34.5531 7.81923 33.9062 8.63635 33.2661 9.45347C32.626 10.2706 31.9928 11.0877 31.3663 11.9048C30.8488 12.5858 30.3313 13.2599 29.8138 13.9272C29.2963 14.5945 28.7788 15.255 28.2612 15.9087C28.0706 16.1266 27.9752 16.3718 27.9752 16.6441C27.9752 16.9165 28.0706 17.1616 28.2612 17.3795C28.5881 17.7881 28.9354 18.1967 29.3031 18.6052C29.6708 19.0138 30.0317 19.4223 30.3858 19.8309C30.6309 20.1033 30.876 20.3688 31.1212 20.6276C31.3663 20.8863 31.5978 21.1519 31.8157 21.4243C30.8079 22.541 29.6776 23.6441 28.4247 24.7336C27.1717 25.8231 25.8507 26.8649 24.4616 27.8591C23.0725 28.8533 21.6494 29.7725 20.1922 30.6169C18.735 31.4612 17.3118 32.1967 15.9227 32.8231C15.4869 32.0332 15.0511 31.2502 14.6153 30.4739C14.1795 29.6976 13.7301 28.9282 13.2671 28.1655C13.1309 27.9204 12.9334 27.7502 12.6747 27.6548C12.4159 27.5595 12.1503 27.5527 11.878 27.6344C11.0881 27.934 10.2982 28.2132 9.50832 28.472C8.71844 28.7307 7.92856 28.9963 7.13867 29.2686C6.15813 29.5955 5.17758 29.9291 4.19704 30.2696C3.21649 30.6101 2.23595 30.971 1.25541 31.3523C1.09198 31.4068 0.948985 31.4953 0.826417 31.6179C0.703849 31.7404 0.615328 31.8834 0.560853 32.0469C0.506378 32.2103 0.492759 32.3737 0.519997 32.5371C0.547234 32.7005 0.601709 32.864 0.683421 33.0274C1.71844 34.6889 2.86241 36.2346 4.11533 37.6646C5.36825 39.0945 6.67564 40.2998 8.03751 41.2803C8.11922 41.362 8.22136 41.4233 8.34393 41.4642C8.46649 41.505 8.58225 41.5255 8.6912 41.5255C8.71844 41.5255 8.73206 41.5255 8.73206 41.5255C9.9305 41.471 11.3741 41.3416 13.0628 41.1373C14.7515 40.933 16.5764 40.5449 18.5375 39.9729C20.4986 39.4009 22.5346 38.6042 24.6455 37.5828C26.7564 36.5614 28.8332 35.22 30.876 33.5585C32.2107 32.4963 33.45 31.3591 34.5939 30.147C35.7379 28.935 36.7933 27.6548 37.7603 26.3066C38.7272 24.9583 39.592 23.542 40.3546 22.0576C41.1173 20.5731 41.7982 19.0274 42.3974 17.4204C42.4519 17.2842 42.4791 17.148 42.4791 17.0118C42.4791 16.8756 42.4519 16.7531 42.3974 16.6441ZM29.4461 31.8017C27.5939 33.2998 25.7009 34.5186 23.7671 35.4583C21.8332 36.398 19.9743 37.1334 18.1902 37.6646C16.4062 38.1957 14.7243 38.5702 13.1445 38.7881C11.5647 39.006 10.2029 39.1422 9.05891 39.1967C8.05112 38.4068 7.06377 37.4875 6.09684 36.4389C5.12992 35.3902 4.2379 34.2395 3.42078 32.9865C4.15618 32.7142 4.8984 32.4554 5.64743 32.2103C6.39646 31.9651 7.13867 31.72 7.87408 31.4749C8.52778 31.257 9.17467 31.0391 9.81474 30.8212C10.4548 30.6033 11.1017 30.3718 11.7554 30.1266C12.2184 30.9165 12.6679 31.7064 13.1037 32.4963C13.5395 33.2862 13.9752 34.0624 14.411 34.8251C14.5472 35.0974 14.7515 35.2813 15.0239 35.3766C15.2963 35.4719 15.5686 35.4651 15.841 35.3562C17.4752 34.7025 19.1367 33.8922 20.8254 32.9253C22.5142 31.9583 24.162 30.9029 25.769 29.7589C27.376 28.6149 28.9013 27.3961 30.3449 26.1023C31.7885 24.8085 33.0823 23.5079 34.2262 22.2005C34.3896 21.9827 34.4782 21.7375 34.4918 21.4651C34.5054 21.1928 34.4169 20.9476 34.2262 20.7297C33.9266 20.3212 33.593 19.9126 33.2252 19.5041C32.8575 19.0955 32.483 18.6869 32.1017 18.2784C31.8566 18.006 31.6114 17.7336 31.3663 17.4613C31.1212 17.1889 30.876 16.9165 30.6309 16.6441C31.0667 16.0994 31.4957 15.5478 31.9179 14.9895C32.34 14.4311 32.769 13.8795 33.2048 13.3348C33.6679 12.7083 34.1445 12.0819 34.6348 11.4554C35.1251 10.829 35.6153 10.2161 36.1056 9.61689C36.9227 10.7064 37.6649 11.8708 38.3323 13.1101C38.9996 14.3494 39.5784 15.65 40.0686 17.0118C39.5239 18.4827 38.8906 19.899 38.1688 21.2609C37.447 22.6227 36.6435 23.9165 35.7583 25.1422C34.8731 26.3679 33.9062 27.5391 32.8575 28.6558C31.8089 29.7725 30.6717 30.8212 29.4461 31.8017Z" fill="white"/>
</g>
</g>
<defs>
<filter id="filter0_i_1_14" x="-8.08386" y="-8.38" width="59.171" height="59.171" filterUnits="userSpaceOnUse" color-interpolation-filters="sRGB">
<feFlood flood-opacity="0" result="BackgroundImageFix"/>
<feBlend mode="normal" in="SourceGraphic" in2="BackgroundImageFix" result="shape"/>
<feColorMatrix in="SourceAlpha" type="matrix" values="0 0 0 0 0 0 0 0 0 0 0 0 0 0 0 0 0 0 127 0" result="hardAlpha"/>
<feMorphology radius="21" operator="erode" in="SourceAlpha" result="effect1_innerShadow_1_14"/>
<feOffset/>
<feComposite in2="hardAlpha" operator="arithmetic" k2="-1" k3="1"/>
<feColorMatrix type="matrix" values="0 0 0 0 0.356863 0 0 0 0 0.819608 0 0 0 0 0.25098 0 0 0 1 0"/>
<feBlend mode="normal" in2="shape" result="effect1_innerShadow_1_14"/>
</filter>
<clipPath id="clip0_1_14">
<rect x="0.5" y="0.200012" width="42" height="42" rx="21" fill="white"/>
</clipPath>
<clipPath id="clip1_1_14">
<rect width="42" height="42" fill="white" transform="matrix(1 0 0 -1 0.519989 42.22)"/>
</clipPath>
</defs>
</svg>
