<svg width="42" height="42" viewBox="0 0 42 42" fill="none" xmlns="http://www.w3.org/2000/svg">
<g clip-path="url(#clip0_1_8)">
<g filter="url(#filter0_i_1_8)">
<rect x="23.59" y="-8.59003" width="42" height="42" rx="21" transform="rotate(50 23.59 -8.59003)" fill="white"/>
</g>
<g clip-path="url(#clip1_1_8)">
<path d="M18.3516 5.51611C18.3516 5.81689 18.2559 6.06299 18.0645 6.25439C17.8731 6.4458 17.627 6.5415 17.3262 6.5415H16.957V6.91064C16.957 7.21143 16.8545 7.45752 16.6494 7.64893C16.4443 7.84033 16.2051 7.93604 15.9316 7.93604C15.6582 7.93604 15.419 7.84033 15.2139 7.64893C15.0088 7.45752 14.9063 7.21143 14.9063 6.91064V6.5415H14.5371C14.2363 6.5415 13.9902 6.4458 13.7988 6.25439C13.6074 6.06299 13.5117 5.81689 13.5117 5.51611C13.5117 5.24268 13.6074 5.00342 13.7988 4.79834C13.9902 4.59326 14.2363 4.49072 14.5371 4.49072H14.9063V4.12158C14.9063 3.84814 15.0088 3.60889 15.2139 3.40381C15.419 3.19873 15.6582 3.09619 15.9316 3.09619C16.2051 3.09619 16.4443 3.19873 16.6494 3.40381C16.8545 3.60889 16.957 3.84814 16.957 4.12158V4.49072H17.3262C17.627 4.49072 17.8731 4.59326 18.0645 4.79834C18.2559 5.00342 18.3516 5.24268 18.3516 5.51611ZM10.0254 10.2329C10.0254 10.2329 10.0254 10.2192 10.0254 10.1919C10.0254 10.1646 10.0254 10.1372 10.0254 10.1099C10.0254 10.1099 10.0254 10.0962 10.0254 10.0688C10.0254 10.0415 10.0254 10.0142 10.0254 9.98682V1.04541C10.0254 0.771973 10.1279 0.532715 10.333 0.327637C10.5381 0.122559 10.7774 0.0200195 11.0508 0.0200195H20.8125C21.0859 0.0200195 21.3252 0.122559 21.5303 0.327637C21.7354 0.532715 21.8379 0.771973 21.8379 1.04541V9.98682C21.8379 10.0142 21.8379 10.0415 21.8379 10.0688C21.8379 10.0962 21.8379 10.1099 21.8379 10.1099C21.8379 10.1372 21.8379 10.1646 21.8379 10.1919C21.8379 10.2192 21.8379 10.2329 21.8379 10.2329C21.8379 11.8735 21.2568 13.2681 20.0947 14.4165C18.9326 15.5649 17.5449 16.1392 15.9316 16.1392C14.3184 16.1392 12.9307 15.5649 11.7686 14.4165C10.6065 13.2681 10.0254 11.8735 10.0254 10.2329ZM19.7051 11.0122H12.1582C12.3496 11.8872 12.794 12.6187 13.4912 13.2065C14.1885 13.7944 15.002 14.0884 15.9316 14.0884C16.8613 14.0884 17.6748 13.7944 18.3721 13.2065C19.0693 12.6187 19.5137 11.8872 19.7051 11.0122ZM12.0762 8.96143H19.7871V2.0708H12.0762V8.96143ZM23.1504 28.5259C22.877 28.5259 22.6377 28.6284 22.4326 28.8335C22.2275 29.0386 22.125 29.2778 22.125 29.5513V39.9692H9.73829V29.5513C9.73829 29.2778 9.63575 29.0386 9.43067 28.8335C9.2256 28.6284 8.98634 28.5259 8.7129 28.5259C8.41212 28.5259 8.16603 28.6284 7.97462 28.8335C7.78321 29.0386 7.68751 29.2778 7.68751 29.5513V40.9946C7.68751 41.2681 7.78321 41.5073 7.97462 41.7124C8.16603 41.9175 8.41212 42.02 8.7129 42.02H23.1504C23.4512 42.02 23.6973 41.9175 23.8887 41.7124C24.0801 41.5073 24.1758 41.2681 24.1758 40.9946V29.5513C24.1758 29.2778 24.0801 29.0386 23.8887 28.8335C23.6973 28.6284 23.4512 28.5259 23.1504 28.5259ZM31.7227 34.8423L26.6367 24.7524C25.9805 23.4399 24.9961 22.1069 23.6836 20.7534C22.3711 19.3999 20.4434 18.7231 17.9004 18.7231H13.9629C11.4199 18.7231 9.4922 19.3999 8.1797 20.7534C6.8672 22.1069 5.88282 23.4399 5.22657 24.7524L0.140635 34.8423C0.0039159 35.1157 -0.0165919 35.3823 0.0791112 35.6421C0.174814 35.9019 0.345713 36.1001 0.591807 36.2368C0.8379 36.3735 1.09767 36.394 1.3711 36.2983C1.64454 36.2026 1.83595 36.0317 1.94532 35.7856L7.07228 25.6548C7.67384 24.4517 8.48731 23.3374 9.5127 22.312C10.5381 21.2866 12.0215 20.7739 13.9629 20.7739H17.9004C19.8418 20.7739 21.3252 21.2866 22.3506 22.312C23.376 23.3374 24.1895 24.4517 24.791 25.6548L29.918 35.7856C30 35.9771 30.1231 36.1206 30.2871 36.2163C30.4512 36.312 30.6289 36.3599 30.8203 36.3599C30.9024 36.3599 30.9775 36.3462 31.0459 36.3188C31.1143 36.2915 31.1895 36.2642 31.2715 36.2368C31.5176 36.1001 31.6885 35.9019 31.7842 35.6421C31.8799 35.3823 31.8594 35.1157 31.7227 34.8423ZM18.3106 24.7935V25.4497H19.1309C19.4316 25.4497 19.6777 25.5454 19.8691 25.7368C20.0606 25.9282 20.1563 26.1743 20.1563 26.4751V31.1509C20.1563 31.4517 20.0606 31.6978 19.8691 31.8892C19.6777 32.0806 19.4316 32.1763 19.1309 32.1763H15.4395C15.166 32.1763 14.9268 32.0806 14.7217 31.8892C14.5166 31.6978 14.4141 31.4517 14.4141 31.1509V26.4751C14.4141 26.1743 14.5166 25.9282 14.7217 25.7368C14.9268 25.5454 15.166 25.4497 15.4395 25.4497H16.2598V24.7935C16.2598 24.52 16.3623 24.2808 16.5674 24.0757C16.7725 23.8706 17.0117 23.7681 17.2852 23.7681C17.5859 23.7681 17.832 23.8706 18.0234 24.0757C18.2149 24.2808 18.3106 24.52 18.3106 24.7935ZM18.1055 27.5005H16.4649V30.1255H18.1055V27.5005Z" fill="white"/>
</g>
</g>
<defs>
<filter id="filter0_i_1_8" x="-8.58385" y="-8.59003" width="59.1709" height="59.171" filterUnits="userSpaceOnUse" color-interpolation-filters="sRGB">
<feFlood flood-opacity="0" result="BackgroundImageFix"/>
<feBlend mode="normal" in="SourceGraphic" in2="BackgroundImageFix" result="shape"/>
<feColorMatrix in="SourceAlpha" type="matrix" values="0 0 0 0 0 0 0 0 0 0 0 0 0 0 0 0 0 0 127 0" result="hardAlpha"/>
<feMorphology radius="21" operator="erode" in="SourceAlpha" result="effect1_innerShadow_1_8"/>
<feOffset/>
<feComposite in2="hardAlpha" operator="arithmetic" k2="-1" k3="1"/>
<feColorMatrix type="matrix" values="0 0 0 0 0.356863 0 0 0 0 0.819608 0 0 0 0 0.25098 0 0 0 1 0"/>
<feBlend mode="normal" in2="shape" result="effect1_innerShadow_1_8"/>
</filter>
<clipPath id="clip0_1_8">
<rect width="42" height="42" rx="21" fill="white"/>
</clipPath>
<clipPath id="clip1_1_8">
<rect width="42" height="42" fill="white" transform="matrix(1 0 0 -1 0.0200005 42.02)"/>
</clipPath>
</defs>
</svg>
