<svg width="61" height="61" viewBox="0 0 61 61" fill="none" xmlns="http://www.w3.org/2000/svg">
<g clip-path="url(#clip0_1_367)">
<g clip-path="url(#clip1_1_367)">
<path d="M20.819 2.54219C23.319 2.54219 25.6628 3.01094 27.8503 3.94844C30.0378 4.88594 31.9518 6.175 33.5925 7.81563C35.155 9.45625 36.4245 11.3703 37.4011 13.5578C38.3776 15.7453 38.8659 18.0891 38.8659 20.5891C38.8659 21.3703 38.8073 22.1516 38.6901 22.9328C38.5729 23.7141 38.3972 24.4563 38.1628 25.1594C38.0065 25.9406 37.7722 26.7023 37.4597 27.4445C37.1472 28.1867 36.7956 28.8703 36.405 29.4953L20.819 56.5656L5.23309 29.4953C4.84247 28.8703 4.49091 28.1867 4.17841 27.4445C3.86591 26.7023 3.63153 25.9406 3.47528 25.1594C3.24091 24.4563 3.06512 23.7141 2.94794 22.9328C2.83075 22.1516 2.77216 21.3703 2.77216 20.5891C2.77216 18.0891 3.26044 15.7453 4.237 13.5578C5.21356 11.3703 6.48309 9.45625 8.04559 7.81563C9.68622 6.175 11.6003 4.88594 13.7878 3.94844C15.9753 3.01094 18.319 2.54219 20.819 2.54219ZM20.819 27.5031C21.7565 27.5031 22.655 27.3273 23.5143 26.9758C24.3737 26.6242 25.1159 26.1359 25.7409 25.5109C26.3659 24.8859 26.8737 24.1438 27.2643 23.2844C27.655 22.425 27.8503 21.5266 27.8503 20.5891C27.8503 19.5734 27.655 18.6555 27.2643 17.8352C26.8737 17.0148 26.3659 16.2922 25.7409 15.6672C25.1159 14.9641 24.3737 14.4367 23.5143 14.0852C22.655 13.7336 21.7565 13.5578 20.819 13.5578C19.8815 13.5578 18.9831 13.7336 18.1237 14.0852C17.2643 14.4367 16.5222 14.9641 15.8972 15.6672C15.2722 16.2922 14.7643 17.0148 14.3737 17.8352C13.9831 18.6555 13.7878 19.5734 13.7878 20.5891C13.7878 21.5266 13.9831 22.425 14.3737 23.2844C14.7643 24.1438 15.2722 24.8859 15.8972 25.5109C16.5222 26.1359 17.2643 26.6242 18.1237 26.9758C18.9831 27.3273 19.8815 27.5031 20.819 27.5031ZM20.819 0.550003C18.0847 0.550003 15.5065 1.07735 13.0847 2.13203C10.6628 3.18672 8.51434 4.6125 6.63934 6.40938C4.84247 8.20625 3.41669 10.3156 2.362 12.7375C1.30731 15.1594 0.779968 17.7766 0.779968 20.5891C0.779968 21.4484 0.838562 22.3273 0.95575 23.2258C1.07294 24.1242 1.24872 25.0031 1.48309 25.8625C1.71747 26.6438 2.01044 27.4445 2.362 28.2648C2.71356 29.0852 3.08466 29.8469 3.47528 30.55L20.819 60.55L38.1628 30.55C38.5534 29.8469 38.9245 29.0852 39.2761 28.2648C39.6276 27.4445 39.9206 26.6438 40.155 25.8625C40.3893 25.0031 40.5651 24.1242 40.6823 23.2258C40.7995 22.3273 40.8581 21.4484 40.8581 20.5891C40.8581 17.7766 40.3307 15.1594 39.2761 12.7375C38.2214 10.3156 36.7956 8.20625 34.9987 6.40938C33.1237 4.6125 30.9753 3.18672 28.5534 2.13203C26.1315 1.07735 23.5534 0.550003 20.819 0.550003ZM20.819 25.5109C20.1159 25.5109 19.4714 25.3938 18.8854 25.1594C18.2995 24.925 17.7722 24.5734 17.3034 24.1047C16.8347 23.6359 16.4636 23.1086 16.1901 22.5227C15.9167 21.9367 15.78 21.2922 15.78 20.5891C15.78 19.8859 15.9167 19.2219 16.1901 18.5969C16.4636 17.9719 16.8347 17.4641 17.3034 17.0734C17.7722 16.6047 18.2995 16.2336 18.8854 15.9602C19.4714 15.6867 20.1159 15.55 20.819 15.55C21.5222 15.55 22.1667 15.6867 22.7526 15.9602C23.3386 16.2336 23.8659 16.6047 24.3347 17.0734C24.8034 17.4641 25.1745 17.9719 25.4479 18.5969C25.7214 19.2219 25.8581 19.8859 25.8581 20.5891C25.8581 21.2922 25.7214 21.9367 25.4479 22.5227C25.1745 23.1086 24.8034 23.6359 24.3347 24.1047C23.8659 24.5734 23.3386 24.925 22.7526 25.1594C22.1667 25.3938 21.5222 25.5109 20.819 25.5109Z" fill="#5BD140"/>
</g>
</g>
<defs>
<clipPath id="clip0_1_367">
<rect x="0.72998" y="0.5" width="60" height="60" rx="30" fill="white"/>
</clipPath>
<clipPath id="clip1_1_367">
<rect width="60" height="60" fill="white" transform="matrix(1 0 0 -1 0.779968 60.55)"/>
</clipPath>
</defs>
</svg>
