<svg width="61" height="61" viewBox="0 0 61 61" fill="none" xmlns="http://www.w3.org/2000/svg">
<g clip-path="url(#clip0_1_353)">
<path d="M29.1424 47.2576L44.3433 32.0567C44.7674 31.6326 44.9794 31.1304 44.9794 30.55C44.9794 29.9696 44.7674 29.4674 44.3433 29.0433L29.1424 13.8424C28.7183 13.4183 28.216 13.2062 27.6357 13.2062C27.0553 13.2062 26.5531 13.4183 26.129 13.8424L22.7138 17.2576C22.2897 17.6817 22.0776 18.1839 22.0776 18.7643C22.0776 19.3446 22.2897 19.8469 22.7138 20.271L32.9928 30.55L22.7138 40.829C22.2897 41.2531 22.0776 41.7554 22.0776 42.3357C22.0776 42.9161 22.2897 43.4183 22.7138 43.8424L26.129 47.2576C26.5531 47.6817 27.0553 47.8937 27.6357 47.8937C28.216 47.8937 28.7183 47.6817 29.1424 47.2576ZM53.1156 17.6426C53.1156 17.6426 53.6904 18.6276 54.8399 20.5974C55.9895 22.5673 56.5643 25.8848 56.5643 30.55C56.5643 35.2152 55.4147 39.5176 53.1156 43.4574C50.8165 47.3971 47.6971 50.5165 43.7573 52.8156C39.8176 55.1147 35.5151 56.2643 30.85 56.2643C26.1848 56.2643 21.8823 55.1147 17.9426 52.8156C14.0029 50.5165 10.8834 47.3971 8.58434 43.4574C6.28523 39.5176 5.13568 35.2152 5.13568 30.55C5.13568 25.8848 6.28523 21.5824 8.58434 17.6426C10.8834 13.7029 14.0029 10.5835 17.9426 8.28437C21.8823 5.98527 26.1848 4.83571 30.85 4.83571C35.5151 4.83571 39.8176 5.98527 43.7573 8.28437C47.6971 10.5835 50.8165 13.7029 53.1156 17.6426Z" fill="#5BD140"/>
</g>
<defs>
<clipPath id="clip0_1_353">
<rect x="0.799988" y="0.5" width="60" height="60" rx="30" fill="white"/>
</clipPath>
</defs>
</svg>
