<svg width="61" height="61" viewBox="0 0 61 61" fill="none" xmlns="http://www.w3.org/2000/svg">
<g clip-path="url(#clip0_1_362)">
<g clip-path="url(#clip1_1_362)">
<path d="M38.8288 57.5031C37.6569 57.5031 36.1335 57.132 34.2585 56.3898C32.3835 55.6477 30.3132 54.5344 28.0476 53.05C25.7819 51.5656 23.4187 49.6711 20.9577 47.3664C18.4968 45.0617 16.1335 42.3469 13.8679 39.2219C11.6804 36.2531 9.76631 33.5188 8.12569 31.0188C6.48506 28.5188 5.15694 26.175 4.14131 23.9875C3.04756 21.8781 2.22725 19.925 1.68037 18.1281C1.1335 16.3313 0.860062 14.7297 0.860062 13.3234C0.860062 12.2297 1.03584 11.2531 1.38741 10.3938C1.73897 9.53438 2.14912 8.79219 2.61787 8.16719C3.16475 7.62032 3.71162 7.13203 4.2585 6.70235C4.80537 6.27266 5.27412 5.90157 5.66475 5.58907L6.01631 5.35469C6.95381 4.65157 8.02803 4.18282 9.23897 3.94844C10.4499 3.71407 11.3288 3.59688 11.8757 3.59688C12.8132 3.59688 13.5163 3.81172 13.9851 4.24141C14.4538 4.6711 14.8054 5.15938 15.0397 5.70625C15.2741 6.09688 15.9968 7.60078 17.2077 10.218C18.4187 12.8352 19.1022 14.3781 19.2585 14.8469C19.4147 15.1594 19.5124 15.5305 19.5515 15.9602C19.5905 16.3898 19.571 16.8 19.4929 17.1906C19.3366 17.6594 19.1413 18.0891 18.9069 18.4797C18.6726 18.8703 18.3601 19.2219 17.9694 19.5344L17.7351 19.6516C17.2663 19.9641 16.739 20.3742 16.153 20.882C15.5671 21.3898 15.2351 21.9563 15.1569 22.5813C15.0788 22.8938 15.0983 23.2258 15.2155 23.5773C15.3327 23.9289 15.5085 24.2609 15.7429 24.5734C16.446 25.5109 17.4226 26.7805 18.6726 28.382C19.9226 29.9836 21.2116 31.6047 22.5397 33.2453C23.8679 34.8859 25.0983 36.3703 26.2312 37.6984C27.364 39.0266 28.1257 39.8469 28.5163 40.1594C28.8288 40.4719 29.1413 40.7063 29.4538 40.8625C29.7663 41.0188 30.0788 41.0969 30.3913 41.0969C30.7819 41.175 31.1335 41.175 31.446 41.0969C31.7585 41.0188 32.0319 40.8625 32.2663 40.6281C32.8132 40.1594 33.2038 39.7883 33.4382 39.5148C33.6726 39.2414 33.7897 39.1047 33.7897 39.1047H33.9069C33.9851 39.0266 34.2194 38.8703 34.6101 38.6359C35.0007 38.4016 35.5476 38.2844 36.2507 38.2844C36.7194 38.2844 37.2077 38.382 37.7155 38.5773C38.2233 38.7727 38.7116 39.0266 39.1804 39.3391C40.5085 40.1984 42.2468 41.3508 44.3952 42.7961C46.5437 44.2414 47.6179 44.9641 47.6179 44.9641L47.7351 45.0813C48.1257 45.3938 48.4772 45.9797 48.7897 46.8391C49.1022 47.6984 48.946 48.7141 48.321 49.8859C48.0085 50.5109 47.5202 51.2727 46.8562 52.1711C46.1921 53.0695 45.4304 53.9094 44.571 54.6906C43.7116 55.4719 42.7937 56.1359 41.8171 56.6828C40.8405 57.2297 39.8444 57.5031 38.8288 57.5031ZM11.8757 5.58907C11.4069 5.58907 10.6843 5.68672 9.70772 5.88203C8.73116 6.07735 7.89131 6.40938 7.18819 6.87813L6.83662 7.22969C6.446 7.46407 6.01631 7.75703 5.54756 8.1086C5.07881 8.46016 4.64912 8.90938 4.2585 9.45625C3.86787 9.925 3.53584 10.4719 3.26241 11.0969C2.98897 11.7219 2.85225 12.4641 2.85225 13.3234C2.85225 14.6516 3.12569 16.1555 3.67256 17.8352C4.21944 19.5148 5.00069 21.3703 6.01631 23.4016C7.03194 25.4328 8.321 27.6594 9.8835 30.0813C11.446 32.5031 13.2819 35.1594 15.3913 38.05C17.7351 41.0969 20.0983 43.7336 22.4812 45.9602C24.864 48.1867 27.1101 50.0031 29.2194 51.4094C31.3288 52.8156 33.2233 53.8508 34.903 54.5148C36.5827 55.1789 37.8913 55.5109 38.8288 55.5109C39.5319 55.5109 40.2937 55.2766 41.114 54.8078C41.9343 54.3391 42.696 53.7922 43.3991 53.1672C44.1022 52.4641 44.7272 51.7414 45.2741 50.9992C45.821 50.257 46.2507 49.5734 46.5632 48.9484C46.8757 48.2453 46.9538 47.6984 46.7976 47.3078C46.6413 46.9172 46.5241 46.6828 46.446 46.6047C46.1335 46.3703 44.9616 45.5695 42.9304 44.2023C40.8991 42.8352 39.2976 41.7609 38.1257 40.9797C37.8132 40.7453 37.5007 40.5695 37.1882 40.4523C36.8757 40.3352 36.5632 40.2766 36.2507 40.2766C35.9382 40.2766 35.7038 40.3156 35.5476 40.3938C35.3913 40.4719 35.2741 40.55 35.196 40.6281C35.1179 40.7063 34.9421 40.882 34.6687 41.1555C34.3952 41.4289 34.0241 41.7609 33.5554 42.1516C33.0866 42.5422 32.5788 42.8156 32.0319 42.9719C31.4851 43.1281 30.9382 43.1672 30.3913 43.0891C29.8444 43.0891 29.278 42.9719 28.6921 42.7375C28.1062 42.5031 27.5788 42.1516 27.1101 41.6828C26.7194 41.2922 25.9382 40.3938 24.7663 38.9875C23.5944 37.5813 22.3054 36.0578 20.8991 34.4172C19.571 32.6984 18.2624 31.0383 16.9733 29.4367C15.6843 27.8352 14.7272 26.6047 14.1022 25.7453C13.7116 25.1984 13.4382 24.632 13.2819 24.0461C13.1257 23.4602 13.0866 22.8547 13.1647 22.2297C13.2429 21.7609 13.4187 21.2922 13.6921 20.8234C13.9655 20.3547 14.2585 19.9641 14.571 19.6516C14.8835 19.2609 15.2155 18.9484 15.5671 18.7141C15.9187 18.4797 16.2507 18.2453 16.5632 18.0109L16.7976 17.8938C17.2663 17.5031 17.5007 17.0539 17.5007 16.5461C17.5007 16.0383 17.4616 15.7063 17.3835 15.55C17.2272 15.1594 16.5632 13.675 15.3913 11.0969C14.2194 8.51875 13.5163 6.99532 13.2819 6.52657C13.1257 6.21407 12.9499 5.97969 12.7546 5.82344C12.5593 5.66719 12.2663 5.58907 11.8757 5.58907Z" fill="#5BD140"/>
</g>
</g>
<defs>
<clipPath id="clip0_1_362">
<rect x="0.810059" y="0.5" width="60" height="60" rx="30" fill="white"/>
</clipPath>
<clipPath id="clip1_1_362">
<rect width="60" height="60" fill="white" transform="matrix(1 0 0 -1 0.860062 60.55)"/>
</clipPath>
</defs>
</svg>
