<svg width="61" height="61" viewBox="0 0 61 61" fill="none" xmlns="http://www.w3.org/2000/svg">
<g clip-path="url(#clip0_1_357)">
<g clip-path="url(#clip1_1_357)">
<path d="M24.5935 6.52657C21.3122 6.52657 18.2067 7.15157 15.2771 8.40157C12.3474 9.65157 9.78877 11.3703 7.60127 13.5578C5.41377 15.7453 3.69502 18.3039 2.44502 21.2336C1.19502 24.1633 0.570023 27.2688 0.570023 30.55C0.570023 33.8313 1.19502 36.9367 2.44502 39.8664C3.69502 42.7961 5.41377 45.3547 7.60127 47.5422C9.78877 49.7297 12.3474 51.4484 15.2771 52.6984C18.2067 53.9484 21.3122 54.5734 24.5935 54.5734C27.8747 54.5734 30.9802 53.9484 33.9099 52.6984C36.8396 51.4484 39.3981 49.7297 41.5856 47.5422C43.7731 45.3547 45.4919 42.7961 46.7419 39.8664C47.9919 36.9367 48.6169 33.8313 48.6169 30.55C48.6169 27.2688 47.9919 24.1633 46.7419 21.2336C45.4919 18.3039 43.7731 15.7453 41.5856 13.5578C39.3981 11.3703 36.8396 9.65157 33.9099 8.40157C30.9802 7.15157 27.8747 6.52657 24.5935 6.52657ZM24.5935 52.5813C21.5466 52.5813 18.695 51.9953 16.0388 50.8234C13.3825 49.6516 11.0388 48.0891 9.00752 46.1359C7.0544 44.1047 5.4919 41.7609 4.32002 39.1047C3.14815 36.4484 2.56221 33.5969 2.56221 30.55C2.56221 27.5031 3.14815 24.6516 4.32002 21.9953C5.4919 19.3391 7.0544 16.9953 9.00752 14.9641C11.0388 13.0109 13.3825 11.4484 16.0388 10.2766C18.695 9.10469 21.5466 8.51875 24.5935 8.51875C27.6403 8.51875 30.4919 9.10469 33.1481 10.2766C35.8044 11.4484 38.1481 13.0109 40.1794 14.9641C42.1325 16.9953 43.695 19.3391 44.8669 21.9953C46.0388 24.6516 46.6247 27.5031 46.6247 30.55C46.6247 33.5969 46.0388 36.4484 44.8669 39.1047C43.695 41.7609 42.1325 44.1047 40.1794 46.1359C38.1481 48.0891 35.8044 49.6516 33.1481 50.8234C30.4919 51.9953 27.6403 52.5813 24.5935 52.5813ZM24.5935 32.5422H12.6403V34.5344H26.5856V14.6125H24.5935V32.5422Z" fill="#5BD140"/>
</g>
</g>
<defs>
<clipPath id="clip0_1_357">
<rect x="0.52002" y="0.5" width="60" height="60" rx="30" fill="white"/>
</clipPath>
<clipPath id="clip1_1_357">
<rect width="60" height="60" fill="white" transform="matrix(1 0 0 -1 0.570023 60.55)"/>
</clipPath>
</defs>
</svg>
